{
  "accessors": [
    {
      "bufferView": 2,
      "componentType": 5126,
      "count": 358,
      "max": [
        0.2903069853782654,
        1.001244068145752,
        1.0012439489364624
      ],
      "min": [
        -0.2903069853782654,
        -1.001244068145752,
        -1.0012439489364624
      ],
      "type": "VEC3"
    },
    {
      "bufferView": 2,
      "byteOffset": 4296,
      "componentType": 5126,
      "count": 358,
      "max": [
        0.9978956580162048,
        1.0,
        1.0
      ],
      "min": [
        -0.9978956580162048,
        -1.0,
        -1.0
      ],
      "type": "VEC3"
    },
    {
      "bufferView": 3,
      "componentType": 5126,
      "count": 358,
      "max": [
        1.0,
        0.9978958964347839,
        0.9942300319671631,
        1.0
      ],
      "min": [
        -0.22919052839279175,
        -0.9978958964347839,
        -0.9942300319671631,
        1.0
      ],
      "type": "VEC4"
    },
    {
      "bufferView": 1,
      "componentType": 5126,
      "count": 358,
      "max": [
        0.8807417154312134,
        0.686101496219635
      ],
      "min": [
        0.0078125,
        0.0078125
      ],
      "type": "VEC2"
    },
    {
      "bufferView": 0,
      "componentType": 5125,
      "count": 1584,
      "type": "SCALAR"
    },
    {
      "bufferView": 2,
      "byteOffset": 8592,
      "componentType": 5126,
      "count": 950,
      "max": [
        0.9999994039535522,
        0.9820202589035034,
        0.9999994039535522
      ],
      "min": [
        -0.9999992251396179,
        -0.9981114864349365,
        -0.9999990463256836
      ],
      "type": "VEC3"
    },
    {
      "bufferView": 2,
      "byteOffset": 19992,
      "componentType": 5126,
      "count": 950,
      "max": [
        1.0,
        1.0,
        1.0
      ],
      "min": [
        -1.0,
        -1.0,
        -1.0
      ],
      "type": "VEC3"
    },
    {
      "bufferView": 3,
      "byteOffset": 5728,
      "componentType": 5126,
      "count": 950,
      "max": [
        1.0,
        1.0,
        0.9997544288635254,
        1.0
      ],
      "min": [
        -0.9951848387718201,
        -1.0,
        -0.9978650212287903,
        1.0
      ],
      "type": "VEC4"
    },
    {
      "bufferView": 1,
      "byteOffset": 2864,
      "componentType": 5126,
      "count": 950,
      "max": [
        0.9685834050178528,
        0.9424456357955933
      ],
      "min": [
        0.0078125,
        0.0078125
      ],
      "type": "VEC2"
    },
    {
      "bufferView": 0,
      "byteOffset": 6336,
      "componentType": 5125,
      "count": 3930,
      "type": "SCALAR"
    },
    {
      "bufferView": 2,
      "byteOffset": 31392,
      "componentType": 5126,
      "count": 72,
      "max": [
        0.05339745432138443,
        0.15352381765842438,
        -0.48497915267944336
      ],
      "min": [
        -0.0009712455794215202,
        0.12207954376935959,
        -0.5418232679367065
      ],
      "type": "VEC3"
    },
    {
      "bufferView": 2,
      "byteOffset": 32256,
      "componentType": 5126,
      "count": 72,
      "max": [
        0.9787600636482239,
        0.9885579347610474,
        0.9825306534767151
      ],
      "min": [
        -0.7685554027557373,
        -0.9965590238571167,
        -0.7167003750801086
      ],
      "type": "VEC3"
    },
    {
      "bufferView": 3,
      "byteOffset": 20928,
      "componentType": 5126,
      "count": 72,
      "max": [
        0.9657507538795471,
        0.9801027774810791,
        0.7016018629074097,
        1.0
      ],
      "min": [
        -0.9890191555023193,
        -0.981829047203064,
        -0.9960839748382568,
        1.0
      ],
      "type": "VEC4"
    },
    {
      "bufferView": 1,
      "byteOffset": 10464,
      "componentType": 5126,
      "count": 72,
      "max": [
        0.28101420402526855,
        0.7145639657974243
      ],
      "min": [
        0.2043420672416687,
        0.6931846141815186
      ],
      "type": "VEC2"
    },
    {
      "bufferView": 0,
      "byteOffset": 22056,
      "componentType": 5125,
      "count": 216,
      "type": "SCALAR"
    },
    {
      "bufferView": 2,
      "byteOffset": 33120,
      "componentType": 5126,
      "count": 135,
      "max": [
        0.9999998211860657,
        1.4081403017044067,
        0.9999998211860657
      ],
      "min": [
        -0.9999995231628418,
        1.0403287410736084,
        -0.9999995231628418
      ],
      "type": "VEC3"
    },
    {
      "bufferView": 2,
      "byteOffset": 34740,
      "componentType": 5126,
      "count": 135,
      "max": [
        0.99655681848526,
        0.99845290184021,
        0.9965568780899048
      ],
      "min": [
        -0.9965569376945496,
        0.08291048556566238,
        -0.99655681848526
      ],
      "type": "VEC3"
    },
    {
      "bufferView": 3,
      "byteOffset": 22080,
      "componentType": 5126,
      "count": 135,
      "max": [
        0.9463335275650024,
        0.9965569972991943,
        0.9428800344467163,
        1.0
      ],
      "min": [
        -0.9480032324790955,
        -0.32843446731567383,
        -0.9999997019767761,
        1.0
      ],
      "type": "VEC4"
    },
    {
      "bufferView": 1,
      "byteOffset": 11040,
      "componentType": 5126,
      "count": 135,
      "max": [
        0.9921875,
        0.6249610185623169
      ],
      "min": [
        0.3849591314792633,
        0.0078125
      ],
      "type": "VEC2"
    },
    {
      "bufferView": 0,
      "byteOffset": 22920,
      "componentType": 5125,
      "count": 534,
      "type": "SCALAR"
    }
  ],
  "asset": {
    "extras": {
      "author": "Morvos (https://sketchfab.com/morvos)",
      "license": "CC-BY-NC-4.0 (http://creativecommons.org/licenses/by-nc/4.0/)",
      "source": "https://sketchfab.com/3d-models/retro-wheel-70680dd3b43f4a468f7e94c5fc51de81",
      "title": "Retro Wheel"
    },
    "generator": "Sketchfab-12.68.0",
    "version": "2.0"
  },
  "bufferViews": [
    {
      "buffer": 0,
      "byteLength": 25056,
      "name": "floatBufferViews",
      "target": 34963
    },
    {
      "buffer": 0,
      "byteLength": 12120,
      "byteOffset": 25056,
      "byteStride": 8,
      "name": "floatBufferViews",
      "target": 34962
    },
    {
      "buffer": 0,
      "byteLength": 36360,
      "byteOffset": 37176,
      "byteStride": 12,
      "name": "floatBufferViews",
      "target": 34962
    },
    {
      "buffer": 0,
      "byteLength": 24240,
      "byteOffset": 73536,
      "byteStride": 16,
      "name": "floatBufferViews",
      "target": 34962
    }
  ],
  "buffers": [
    {
      "byteLength": 97776,
      "uri": "scene.bin"
    }
  ],
  "images": [
    {
      "uri": "textures/lambert1_baseColor.png"
    },
    {
      "uri": "textures/lambert1_metallicRoughness.png"
    },
    {
      "uri": "textures/lambert1_normal.png"
    }
  ],
  "materials": [
    {
      "doubleSided": true,
      "name": "lambert1",
      "normalTexture": {
        "index": 2
      },
      "occlusionTexture": {
        "index": 1
      },
      "pbrMetallicRoughness": {
        "baseColorTexture": {
          "index": 0
        },
        "metallicRoughnessTexture": {
          "index": 1
        }
      }
    }
  ],
  "meshes": [
    {
      "name": "LP_lambert1_0",
      "primitives": [
        {
          "attributes": {
            "NORMAL": 1,
            "POSITION": 0,
            "TANGENT": 2,
            "TEXCOORD_0": 3
          },
          "indices": 4,
          "material": 0,
          "mode": 4
        }
      ]
    },
    {
      "name": "pCylinder1_lambert1_0",
      "primitives": [
        {
          "attributes": {
            "NORMAL": 6,
            "POSITION": 5,
            "TANGENT": 7,
            "TEXCOORD_0": 8
          },
          "indices": 9,
          "material": 0,
          "mode": 4
        }
      ]
    },
    {
      "name": "polySurface14_lambert1_0",
      "primitives": [
        {
          "attributes": {
            "NORMAL": 11,
            "POSITION": 10,
            "TANGENT": 12,
            "TEXCOORD_0": 13
          },
          "indices": 14,
          "material": 0,
          "mode": 4
        }
      ]
    },
    {
      "name": "pCylinder2_lambert1_0",
      "primitives": [
        {
          "attributes": {
            "NORMAL": 16,
            "POSITION": 15,
            "TANGENT": 17,
            "TEXCOORD_0": 18
          },
          "indices": 19,
          "material": 0,
          "mode": 4
        }
      ]
    }
  ],
  "nodes": [
    {
      "children": [
        1
      ],
      "matrix": [
        1.0,
        0.0,
        0.0,
        0.0,
        0.0,
        2.220446049250313e-16,
        -1.0,
        0.0,
        0.0,
        1.0,
        2.220446049250313e-16,
        0.0,
        0.0,
        0.0,
        0.0,
        1.0
      ],
      "name": "Sketchfab_model"
    },
    {
      "children": [
        2
      ],
      "matrix": [
        1.0,
        0.0,
        0.0,
        0.0,
        0.0,
        0.0,
        1.0,
        0.0,
        0.0,
        -1.0,
        0.0,
        0.0,
        0.0,
        0.0,
        0.0,
        1.0
      ],
      "name": "5b56953805b14099bc74ec657a2bf52f.fbx"
    },
    {
      "children": [
        3
      ],
      "name": "RootNode"
    },
    {
      "children": [
        4,
        6,
        8,
        10
      ],
      "name": "LP"
    },
    {
      "children": [
        5
      ],
      "name": "LP"
    },
    {
      "mesh": 0,
      "name": "LP_lambert1_0"
    },
    {
      "children": [
        7
      ],
      "matrix": [
        -2.87767850066183e-16,
        -0.6479955911636353,
        0.0,
        0.0,
        0.26075851917266846,
        -1.1580004474106274e-16,
        0.0,
        0.0,
        0.0,
        0.0,
        0.6479955911636353,
        0.0,
        0.0,
        0.0,
        0.0,
        1.0
      ],
      "name": "pCylinder1"
    },
    {
      "mesh": 1,
      "name": "pCylinder1_lambert1_0"
    },
    {
      "children": [
        9
      ],
      "matrix": [
        0.9311556816101074,
        0.0,
        0.0,
        0.0,
        0.0,
        0.9311556816101074,
        0.0,
        0.0,
        0.0,
        0.0,
        0.9311556816101074,
        0.0,
        0.0018974110716953874,
        0.00941543746739626,
        -0.035247884690761566,
        1.0
      ],
      "name": "polySurface14"
    },
    {
      "mesh": 2,
      "name": "polySurface14_lambert1_0"
    },
    {
      "children": [
        11
      ],
      "matrix": [
        -1.7746487709923326e-16,
        -0.3996153771877289,
        0.0,
        0.0,
        0.18041570484638214,
        -8.012066780977196e-17,
        0.0,
        0.0,
        0.0,
        0.0,
        0.3996153771877289,
        0.0,
        0.0,
        0.0,
        0.0,
        1.0
      ],
      "name": "pCylinder2"
    },
    {
      "mesh": 3,
      "name": "pCylinder2_lambert1_0"
    }
  ],
  "samplers": [
    {
      "magFilter": 9729,
      "minFilter": 9987,
      "wrapS": 10497,
      "wrapT": 10497
    }
  ],
  "scene": 0,
  "scenes": [
    {
      "name": "Sketchfab_Scene",
      "nodes": [
        0
      ]
    }
  ],
  "textures": [
    {
      "sampler": 0,
      "source": 0
    },
    {
      "sampler": 0,
      "source": 1
    },
    {
      "sampler": 0,
      "source": 2
    }
  ]
}
